<svg id="Layer_2" data-name="Layer 2" xmlns="http://www.w3.org/2000/svg" xmlns:xlink="http://www.w3.org/1999/xlink" viewBox="0 0 290.67 234.86"><defs><style>.cls-1{fill:#dcd1d5;}.cls-2,.cls-3{fill:#d78131;}.cls-2{stroke:#460f02;stroke-miterlimit:10;stroke-width:3px;}.cls-4{fill:#460f02;}.cls-5{fill:url(#linear-gradient);}.cls-6{fill:#5b0b00;}.cls-7{fill:#fff;}.cls-8{fill:#4d0d0d;}</style><linearGradient id="linear-gradient" x1="234.27" y1="197.04" x2="234.27" y2="112.05" gradientUnits="userSpaceOnUse"><stop offset="0" stop-color="#a85917"/><stop offset="1" stop-color="#d78131"/></linearGradient></defs><title>dog</title><ellipse id="shadow" class="cls-1" cx="115.98" cy="225.08" rx="97.46" ry="9.78"/><path id="front-left-leg" class="cls-2" d="M170.45,274.24s3.51,5.74,1.75,11-4.17,16.46,2,18.22,8.08,2,11.39,1.21,9-8,9-8V267.91Z" transform="translate(-66.43 -80.02)"/><path id="body" class="cls-2" d="M193.76,171.64s9.46,3.59,13.35,0,14.48-35.22,14-43.78,1.66-15.8,4.34-17.56,15.2-9.66,27-10.76,23,.44,26.78,3.08,6.59,10.31,8.57,11.19,3.73,3.52,9.22,4,48.51,1.54,52.46,2.2,6.58,2.19,5.93,5.49-4.83,15.14-10.32,19.53S326.52,160.13,312,162.33s-23.49,1-30.51,10.91S262,199.42,264.18,208.86s6.58,26.34,2.85,39.95-.44,12.3-1.75,15.81S253.64,279.32,249,282.4s-8.12,8.78-6.8,10.75,7.24.22,9.22,2S256.5,305,252.54,307s-19.09,3.3-22.17,0-2-11.63-.65-15.8,4.55-15.37,4.55-15.37-12.77,7.68-22.82,5.49-10.19,3.57-20.88-1-14-8.33-14-8.33Z" transform="translate(-66.43 -80.02)"/><path id="butt" class="cls-2" d="M217,210.06c-4.51-12.9-10.22-25.64-19.92-35.36-12.28-12.32-30-18.86-47.3-18.86-22.85,0-46.61,11.64-57.55,32.24-7.72,14.53-9.79,31.6-9.17,47.84.34,9,1.17,18.5,4.43,27.11,3.71,9.78,11.09,15.12,17.25,23.07.24.3,5.41,8.08,5.15,8.15,0,0-10,2.64-8.49,8.78,2.63,11.05,15,9.47,23.86,7.56a7.91,7.91,0,0,0,3-1.15c5.52-4,3.68-16.71.33-21.33-6.14-8.49-7.06-15-6.46-16.45a69.14,69.14,0,0,0,27.62,5.7,68.35,68.35,0,0,0,37.93-11.31v0a28,28,0,0,1,3.56,9.44c.73,4.41-2.13,6.88-3.87,10.57a29.15,29.15,0,0,0-2.82,12,17,17,0,0,0,1,6.63c1.45,3.61,5.17,6.21,8.88,7.13,4.68,1.17,13.75.3,19-1.75s2.05-8.2-.58-12-8.49.87-8.49-3.52c0-3.13,3.24-7,4.77-9.54,7.68-12.71,16.66-24.52,16.31-40.09C225.22,233,220.87,221.19,217,210.06Z" transform="translate(-66.43 -80.02)"/><g id="tail"><path class="cls-3" d="M135.91,189.47c-19.78-4.86-46.63-14.3-57.58-32.72-7.68-12.9-13.55-33.83-8.75-48.53,3.06-9.38,6.93-18.53,10.72-27.63a178,178,0,0,0-4.38,24.88,58.31,58.31,0,0,0,8.6,36.27c6.49,10.5,16.8,21.38,29.3,24,18,3.81,25,2.93,30.87,1.17" transform="translate(-66.43 -80.02)"/><path class="cls-4" d="M135.91,189.47A167.93,167.93,0,0,1,118,184.6a121.12,121.12,0,0,1-17.18-7.1A73,73,0,0,1,85.42,167c-1.11-1.11-2.25-2.19-3.31-3.36l-1.52-1.81a15.43,15.43,0,0,1-1.45-1.88,56.51,56.51,0,0,1-4.79-8.12,85.23,85.23,0,0,1-3.64-8.66,88,88,0,0,1-2.59-9,67.93,67.93,0,0,1-1.46-9.32c-.18-1.56-.17-3.15-.23-4.73a44.83,44.83,0,0,1,.25-4.77,42.87,42.87,0,0,1,.76-4.74l.64-2.33c.21-.79.48-1.49.71-2.24,1-3,2-5.86,3.16-8.76,2.21-5.79,4.59-11.5,7-17.19l2.81.93c-1.34,5.35-2.45,10.75-3.29,16.2q-.63,4.08-1.07,8.19a54.94,54.94,0,0,0-.28,8.11,55.68,55.68,0,0,0,3,15.94,62.65,62.65,0,0,0,3.12,7.54A65.07,65.07,0,0,0,87.33,144,63.14,63.14,0,0,0,98,156.4a38.79,38.79,0,0,0,14,8.17l2,.54,2,.46c1.35.31,2.71.57,4.07.85,2.71.52,5.44,1,8.19,1.31,5.47.65,11.1.74,16.47-.8a33.49,33.49,0,0,1-8.17,1.65,54.38,54.38,0,0,1-8.37-.09c-2.79-.22-5.55-.59-8.31-1-1.37-.23-2.75-.44-4.12-.7l-2.06-.38-2.07-.48a39.41,39.41,0,0,1-14.8-8.13,65.37,65.37,0,0,1-11.3-12.54,59.93,59.93,0,0,1-11.16-31.67,58,58,0,0,1,.19-8.54q.44-4.17,1.06-8.33c.83-5.54,1.94-11,3.28-16.48l2.81.93c-2.35,5.71-4.75,11.38-7,17.11-1.11,2.86-2.17,5.74-3.15,8.63-.24.73-.52,1.46-.71,2.17l-.59,2.13a40.14,40.14,0,0,0-.71,4.39c-.2,1.47-.21,3-.28,4.47s0,3,.17,4.5a63.57,63.57,0,0,0,1.3,9,81.26,81.26,0,0,0,2.4,8.77c1,2.87,2.08,5.71,3.36,8.47a54.74,54.74,0,0,0,4.41,7.9,14.88,14.88,0,0,0,1.33,1.82l1.41,1.76c1,1.14,2.07,2.21,3.11,3.3a71.32,71.32,0,0,0,14.82,10.61C112.29,182.15,124,186.15,135.91,189.47Z" transform="translate(-66.43 -80.02)"/></g><path id="butthole" class="cls-4" d="M139.13,204.69a12.22,12.22,0,0,0-1.4-2.66c-.28-.41-.58-.8-.89-1.19.2-.23.39-.46.56-.7a8.35,8.35,0,0,0,1.14-2.18,8.25,8.25,0,0,0-2.22,1c-.24.16-.46.33-.68.49a21.42,21.42,0,0,0-1.86-1.7,12.61,12.61,0,0,0-2.55-1.59,12.22,12.22,0,0,0,1.4,2.66,22.11,22.11,0,0,0,1.53,1.94,12.76,12.76,0,0,0-1.21,1.42,8.19,8.19,0,0,0-1.14,2.18,8.48,8.48,0,0,0,2.23-1,12.92,12.92,0,0,0,1.49-1.16c.34.31.68.62,1.05.9A11.69,11.69,0,0,0,139.13,204.69Z" transform="translate(-66.43 -80.02)"/><g id="ear"><path class="cls-5" d="M226.86,115.35s-22.1,19.32-22.46,33.15,2.27,15.14,4.68,17.56,20.85,22.61,26.34,24.8,15.59,6.59,20,6.15,8.78-5.27,8.78-10.1-11-35.56-12.51-42.8-4.17-32.49-7.47-32.05" transform="translate(-66.43 -80.02)"/><path class="cls-4" d="M226.86,115.35c-1.56,1.53-3.07,3.11-4.53,4.72s-2.92,3.24-4.3,4.92a86,86,0,0,0-7.61,10.5c-2.2,3.65-4.11,7.6-4.59,11.62-.06.5-.06,1-.09,1.49v1.61c0,1.08.05,2.15.1,3.21a29.14,29.14,0,0,0,.86,6.16,9.34,9.34,0,0,0,1.07,2.6,10,10,0,0,0,1.88,2.11c1.68,1.59,3.1,3.16,4.65,4.72,3,3.13,6.08,6.23,9.19,9.26s6.23,6.07,9.52,8.67a20.25,20.25,0,0,0,2.43,1.72,24.38,24.38,0,0,0,2.76,1.2c2,.81,4,1.62,6,2.36s4,1.48,6,2.05a24.39,24.39,0,0,0,3,.66,11.58,11.58,0,0,0,1.37.14h.59l.58-.09a9.17,9.17,0,0,0,6.47-7.64,6.27,6.27,0,0,0-.05-1.23c-.07-.46-.18-1-.27-1.48-.23-1-.47-2.06-.75-3.1-.54-2.08-1.14-4.17-1.75-6.25l-3.76-12.53c-1.25-4.18-2.54-8.35-3.71-12.59-.57-2.11-1.16-4.25-1.56-6.48s-.64-4.36-.91-6.53c-.52-4.34-1-8.67-1.66-13-.31-2.16-.65-4.31-1.1-6.44a30.86,30.86,0,0,0-.79-3.15,9.89,9.89,0,0,0-.6-1.51c-.25-.44-.57-1-1.15-1a.92.92,0,0,1,.75.28,3.28,3.28,0,0,1,.53.65,9.69,9.69,0,0,1,.75,1.47,31.92,31.92,0,0,1,1.1,3.11c.62,2.11,1.13,4.25,1.6,6.39.95,4.28,1.71,8.59,2.51,12.88.39,2.14.77,4.3,1.22,6.39s1.14,4.1,1.82,6.17l4.18,12.39c1.41,4.13,2.81,8.27,4.13,12.46.67,2.09,1.31,4.19,1.92,6.32.31,1.06.58,2.15.86,3.25.12.58.25,1.12.35,1.73a9.31,9.31,0,0,1,.12,2,12.27,12.27,0,0,1-2.94,7,12.13,12.13,0,0,1-6.46,4.16l-1,.17-1,0a16,16,0,0,1-1.89-.17,29.68,29.68,0,0,1-3.43-.74c-2.2-.61-4.31-1.34-6.39-2.11s-4.11-1.62-6.13-2.45a26.94,26.94,0,0,1-3.22-1.45,25.8,25.8,0,0,1-2.91-2.07c-1.78-1.42-3.41-2.91-5-4.43s-3.19-3-4.72-4.62c-3.08-3.14-6.09-6.32-9.07-9.53-1.48-1.58-3-3.26-4.43-4.72a13.14,13.14,0,0,1-2.33-2.88,12.39,12.39,0,0,1-1.31-3.47,32.25,32.25,0,0,1-.73-6.82c0-1.12,0-2.23,0-3.34l.06-1.66c.06-.58.09-1.19.19-1.77a25.11,25.11,0,0,1,2.15-6.54,44.25,44.25,0,0,1,3.38-5.79,82.62,82.62,0,0,1,8.44-10.18A108.21,108.21,0,0,1,226.86,115.35Z" transform="translate(-66.43 -80.02)"/></g><g id="smile"><path class="cls-4" d="M288.32,139.5a33,33,0,0,0,9.11,9.72A29.2,29.2,0,0,0,309.28,154a35.63,35.63,0,0,0,6.47.58,56.75,56.75,0,0,0,6.62-.32c4.46-.45,8.91-1.39,13.49-2.28a44.75,44.75,0,0,1-12.95,5.38,39.86,39.86,0,0,1-7.09,1c-1.2.1-2.41,0-3.62,0s-2.42-.2-3.63-.44a26.16,26.16,0,0,1-13.1-6.27A23,23,0,0,1,288.32,139.5Z" transform="translate(-66.43 -80.02)"/></g><path id="nose" class="cls-6" d="M349.57,120c-1.3-.22-6.79-.48-13.78-.75a10.43,10.43,0,0,0-2.43,8.05c.93,6.54,8.55,10.86,17,9.65.28,0,.55-.1.82-.15a53.62,53.62,0,0,0,4.31-11.31C356.15,122.15,353.52,120.62,349.57,120Z" transform="translate(-66.43 -80.02)"/><g id="eye"><ellipse class="cls-7" cx="209.93" cy="42.35" rx="6.04" ry="7.25"/><ellipse class="cls-8" cx="274.93" cy="123.14" rx="4.61" ry="6.04" transform="translate(-84.15 -28.31) rotate(-10.41)"/></g><g id="eye-closed"><path class="cls-4" d="M266.08,126.54a11.05,11.05,0,0,1,3.33-5.2,10.38,10.38,0,0,1,6-2.22,7.22,7.22,0,0,1,3.38.33,5.08,5.08,0,0,1,1.5,1,9.34,9.34,0,0,1,1.13,1.14,35.66,35.66,0,0,1,3.48,5,49,49,0,0,1-4.64-3.84,6.83,6.83,0,0,0-2.16-1.44,7.09,7.09,0,0,0-2.55-.16,11.06,11.06,0,0,0-5.26,1.45A17.16,17.16,0,0,0,266.08,126.54Z" transform="translate(-66.43 -80.02)"/></g></svg>